<svg width="214" height="40" viewBox="0 0 214 40" fill="none" xmlns="http://www.w3.org/2000/svg">
<g clip-path="url(#clip0_459_843)">
<path d="M34.2857 0H5.71429C2.55429 0 0 2.56 0 5.71429V34.2857C0 37.44 2.55429 40 5.71429 40H34.2857C37.44 40 40 37.44 40 34.2857V5.71429C40 2.56 37.44 0 34.2857 0ZM12.8571 17.6229V34C12.8571 34.16 12.7257 34.2857 12.5714 34.2857H8.37714C8.22286 34.2857 8.09143 34.16 8.09143 34V17.7257C8.09143 11.1371 13.4 5.72 19.9886 5.71429C25.6286 5.71429 30.3543 9.62857 31.5886 14.8914C31.6286 15.0686 31.4914 15.24 31.3086 15.24H26.9314C26.8171 15.24 26.7086 15.1657 26.6686 15.0571C25.6343 12.3771 23.04 10.48 20 10.48C16.0514 10.48 12.8571 13.6743 12.8571 17.6229ZM31.9029 34C31.9029 34.16 31.7714 34.2857 31.6171 34.2857H27.4286C27.2686 34.2857 27.1429 34.16 27.1429 34V27.1429C25.7543 28.1829 24.1371 28.9314 22.3771 29.2857V34C22.3771 34.16 22.2514 34.2857 22.0914 34.2857H17.9029C17.7429 34.2857 17.6171 34.16 17.6171 34V15.5257C17.6171 15.3657 17.7429 15.24 17.9029 15.24H22.0914C22.2514 15.24 22.3771 15.3657 22.3771 15.5257V24.3543C24.3486 23.6629 25.92 22.1257 26.6686 20.1829C26.7086 20.0743 26.8171 20 26.9314 20H31.6171C31.7714 20 31.9029 20.1314 31.9029 20.2857V34Z" fill="#262E33"/>
<path d="M58.0628 13.5144C60.1771 13.5144 61.8857 14.263 63.1999 15.7544C64.5142 17.2458 65.1657 19.2115 65.1657 21.6401C65.1657 24.0687 64.4914 26.0058 63.1485 27.5144C61.8057 29.0173 60.0628 29.7715 57.9314 29.7715C56.8228 29.7715 55.8285 29.5258 54.9542 29.0344C54.0799 28.543 53.4399 27.9258 53.0342 27.1773V35.7544H48.1371V13.9315H53.0342V16.1373C53.4399 15.3715 54.1028 14.743 55.0171 14.2515C55.9314 13.7601 56.9485 13.5144 58.0571 13.5144H58.0628ZM56.5257 25.7087C57.5942 25.7087 58.4685 25.3315 59.1485 24.5715C59.8285 23.8173 60.1714 22.8401 60.1714 21.6458C60.1714 20.4515 59.8285 19.4801 59.1485 18.7315C58.4628 17.983 57.5885 17.6115 56.5257 17.6115C55.4628 17.6115 54.5199 17.983 53.8399 18.7315C53.1542 19.4801 52.8171 20.4515 52.8171 21.6458C52.8171 22.8401 53.1657 23.8458 53.8571 24.5887C54.5485 25.3373 55.4399 25.7087 56.5314 25.7087H56.5257Z" fill="#262E33"/>
<path d="M83.3771 20.8458C83.3771 21.4858 83.3314 22.2001 83.2514 22.9887H71.8571C71.8971 23.9944 72.24 24.7716 72.88 25.3258C73.52 25.8801 74.3828 26.1601 75.4743 26.1601C76.9657 26.1601 77.9257 25.6801 78.3543 24.7201H83.1543C82.92 26.2344 82.0914 27.4687 80.6743 28.4173C79.2571 29.3658 77.52 29.8401 75.4743 29.8401C72.8514 29.8401 70.7828 29.1144 69.2685 27.663C67.7543 26.2116 66.9943 24.2058 66.9943 21.6458C66.9943 19.0858 67.7486 17.1373 69.2685 15.6801C70.7828 14.2173 72.8 13.4858 75.3143 13.4858C77.8285 13.4858 79.6457 14.1716 81.1371 15.5316C82.6286 16.8973 83.3771 18.6687 83.3771 20.8458ZM71.8571 19.9487H78.5428C78.52 18.9258 78.2343 18.1373 77.68 17.583C77.1257 17.0287 76.3257 16.7487 75.28 16.7487C74.2343 16.7487 73.4057 17.0401 72.8 17.6287C72.1943 18.2173 71.8743 18.9887 71.8571 19.9487Z" fill="#262E33"/>
<path d="M97.5827 6.95444H102.48V29.3544H97.617V27.1773C97.1885 27.943 96.537 28.5716 95.6513 29.0516C94.7656 29.5316 93.7885 29.7716 92.7256 29.7716C90.4856 29.7716 88.7142 29.0173 87.4113 27.4973C86.1085 25.983 85.457 24.0287 85.457 21.6402C85.457 19.2516 86.1313 17.3544 87.4742 15.8173C88.817 14.2802 90.5885 13.5144 92.7885 13.5144C93.8742 13.5144 94.8456 13.7487 95.7027 14.2173C96.5542 14.6859 97.1942 15.3259 97.6227 16.1373V14.823H97.5885V6.94873L97.5827 6.95444ZM94.1256 25.7087C95.297 25.7087 96.2056 25.3259 96.8456 24.5544C97.4856 23.7887 97.8056 22.8173 97.8056 21.6402C97.8056 20.463 97.4856 19.5259 96.8456 18.7602C96.2056 17.9944 95.297 17.6059 94.1256 17.6059C93.017 17.6059 92.1256 17.9773 91.4513 18.7259C90.777 19.4744 90.4456 20.4459 90.4456 21.6402C90.4456 22.8344 90.7827 23.8116 91.4513 24.5659C92.1256 25.3259 93.0113 25.703 94.1256 25.703V25.7087Z" fill="#262E33"/>
<path d="M106.543 29.3543V13.9315H111.44V17.1657C111.697 16.0572 112.223 15.2 113.023 14.5886C113.823 13.9829 114.714 13.6743 115.697 13.6743C116.211 13.6743 116.634 13.72 116.977 13.8V18.3429C116.4 18.28 115.909 18.2457 115.503 18.2457C112.794 18.2457 111.44 19.9657 111.44 23.4V29.3543H106.543Z" fill="#262E33"/>
<path d="M133.086 27.5316C131.537 29.0687 129.463 29.8344 126.863 29.8344C124.263 29.8344 122.177 29.0687 120.623 27.5316C119.063 25.9944 118.286 24.0344 118.286 21.6458C118.286 19.2573 119.063 17.2973 120.623 15.7716C122.177 14.2458 124.257 13.4858 126.863 13.4858C129.469 13.4858 131.537 14.2458 133.086 15.7716C134.634 17.2973 135.406 19.2573 135.406 21.6458C135.406 24.0344 134.634 26.0001 133.086 27.5316ZM126.863 25.6744C127.994 25.6744 128.891 25.303 129.549 24.5544C130.211 23.8058 130.543 22.8401 130.543 21.6401C130.543 20.4401 130.211 19.4744 129.549 18.7258C128.886 17.9773 127.989 17.6058 126.863 17.6058C125.737 17.6058 124.811 17.9773 124.16 18.7258C123.509 19.4744 123.183 20.4458 123.183 21.6401C123.183 22.8344 123.509 23.8058 124.16 24.5544C124.811 25.303 125.714 25.6744 126.863 25.6744Z" fill="#262E33"/>
<path d="M148.114 13.5143C151.869 13.5143 153.749 15.6172 153.749 19.8172V29.3543H148.823V21.4172C148.823 20.0972 148.617 19.1372 148.2 18.5372C147.783 17.9429 147.086 17.6401 146.103 17.6401C144.12 17.6401 143.126 18.8572 143.126 21.2858V29.3486H138.229V6.95435H143.126V16.1715C144.046 14.4001 145.709 13.5143 148.12 13.5143H148.114Z" fill="#262E33"/>
<path d="M172.817 20.8458C172.817 21.4858 172.771 22.2001 172.691 22.9887H161.297C161.337 23.9944 161.68 24.7716 162.32 25.3258C162.96 25.8801 163.823 26.1601 164.914 26.1601C166.406 26.1601 167.366 25.6801 167.794 24.7201H172.594C172.36 26.2344 171.531 27.4687 170.114 28.4173C168.697 29.3658 166.96 29.8401 164.914 29.8401C162.291 29.8401 160.223 29.1144 158.709 27.663C157.194 26.2116 156.434 24.2058 156.434 21.6458C156.434 19.0858 157.189 17.1373 158.709 15.6801C160.223 14.2173 162.24 13.4858 164.754 13.4858C167.269 13.4858 169.086 14.1716 170.577 15.5316C172.069 16.8973 172.817 18.6687 172.817 20.8458ZM161.297 19.9487H167.983C167.96 18.9258 167.674 18.1373 167.12 17.583C166.566 17.0287 165.766 16.7487 164.72 16.7487C163.674 16.7487 162.846 17.0401 162.24 17.6287C161.634 18.2173 161.314 18.9887 161.297 19.9487Z" fill="#262E33"/>
<path d="M175.634 29.3544V13.9315H180.531V16.1715C181.451 14.4001 183.114 13.5144 185.526 13.5144C189.28 13.5144 191.16 15.6173 191.16 19.8173V29.3544H186.234V21.4173C186.234 20.0973 186.029 19.1373 185.611 18.5373C185.194 17.943 184.497 17.6401 183.514 17.6401C181.531 17.6401 180.537 18.8573 180.537 21.2858V29.3487H175.64L175.634 29.3544Z" fill="#262E33"/>
<path d="M195.057 29.3543V13.9315H199.954V17.1657C200.211 16.0572 200.737 15.2 201.537 14.5886C202.337 13.9829 203.228 13.6743 204.211 13.6743C204.726 13.6743 205.148 13.72 205.491 13.8V18.3429C204.914 18.28 204.423 18.2457 204.017 18.2457C201.308 18.2457 199.954 19.9657 199.954 23.4V29.3543H195.057Z" fill="#262E33"/>
<path d="M212.754 11.6915C212.177 12.2687 211.451 12.5544 210.577 12.5544C209.703 12.5544 208.983 12.2687 208.417 11.6915C207.851 11.1144 207.571 10.4115 207.571 9.57725C207.571 8.74296 207.851 8.01153 208.417 7.43439C208.983 6.85725 209.703 6.57153 210.577 6.57153C211.451 6.57153 212.177 6.86296 212.754 7.45153C213.331 8.0401 213.617 8.74868 213.617 9.57725C213.617 10.4058 213.331 11.1144 212.754 11.6915ZM208.114 29.3544V13.9315H213.011V29.3544H208.114Z" fill="#262E33"/>
</g>
<defs>
<clipPath id="clip0_459_843">
<rect width="213.333" height="40" fill="white"/>
</clipPath>
</defs>
</svg>
