<svg width="24" height="24" viewBox="0 0 24 24" fill="none" xmlns="http://www.w3.org/2000/svg">
  <path
    d="M7.55556 2H3.11111C2.81643 2 2.53381 2.11706 2.32544 2.32544C2.11706 2.53381 2 2.81643 2 3.11111V7.55556M7.55556 22H3.11111C2.81643 22 2.53381 21.8829 2.32544 21.6746C2.11706 21.4662 2 21.1836 2 20.8889V16.4444M16.4444 22H20.8889C21.1836 22 21.4662 21.8829 21.6746 21.6746C21.8829 21.4662 22 21.1836 22 20.8889V16.4444M16.4444 2H20.8889C21.1836 2 21.4662 2.11706 21.6746 2.32544C21.8829 2.53381 22 2.81643 22 3.11111V7.55556"
    stroke="#262E33" stroke-width="2" stroke-linecap="round" stroke-linejoin="round" />
</svg>