<svg width="24" height="24" viewBox="0 0 24 24" fill="none" xmlns="http://www.w3.org/2000/svg">
  <path fill-rule="evenodd" clip-rule="evenodd"
    d="M8.62331 1H15.3768C15.6019 1 15.7748 1 15.9253 1.01637C16.5929 1.08789 17.2129 1.39577 17.6734 1.88441C18.1339 2.37305 18.4045 3.01025 18.4363 3.68093C19.0368 3.86196 19.5641 4.22932 19.9419 4.72985C20.3197 5.23039 20.5285 5.83815 20.5381 6.46521C21.1531 6.6494 21.6842 6.94102 22.118 7.40967C22.7852 8.13107 22.9919 9.01823 23.0001 10.0558C23.0072 11.0535 22.8302 12.3141 22.6092 13.8787L22.1589 17.0651C21.987 18.2889 21.8468 19.2835 21.6289 20.0622C21.4007 20.8778 21.0641 21.548 20.4419 22.0637C19.8239 22.5753 19.0912 22.7953 18.2255 22.8997C17.3875 23 16.3335 23 15.0228 23H8.97736C7.66554 23 6.61159 23 5.77457 22.8997C4.90787 22.7953 4.17522 22.5753 3.55717 22.0637C2.93503 21.548 2.59838 20.8767 2.37019 20.0622C2.15224 19.2835 2.01206 18.2889 1.83913 17.0641L1.38992 13.8787C1.16992 12.3131 0.990846 11.0535 0.999032 10.0558C1.00722 9.01823 1.21392 8.13107 1.88108 7.40967C2.31494 6.94102 2.84499 6.65042 3.45996 6.46521C3.46981 5.83819 3.67887 5.23057 4.05689 4.73022C4.43491 4.22988 4.96229 3.86275 5.56275 3.68195C5.59434 3.01109 5.86483 2.37365 6.32535 1.8848C6.78586 1.39594 7.40604 1.08792 8.07382 1.01637C8.22424 1 8.39717 1 8.62126 1H8.62331ZM5.02964 6.19609C5.97717 6.11628 7.13754 6.11628 8.53633 6.11628H15.4617C16.8595 6.11628 18.0199 6.11628 18.9684 6.19609C18.8976 5.88273 18.7222 5.6028 18.4712 5.40233C18.2201 5.20186 17.9083 5.09278 17.587 5.09302H6.41206C5.7275 5.09302 5.17187 5.57395 5.03168 6.19609H5.02964ZM15.7605 2.54307C16.3233 2.60242 16.7684 3.02195 16.8779 3.55814H7.12117C7.17546 3.2921 7.313 3.05024 7.51389 2.86756C7.71477 2.68489 7.96858 2.57088 8.23857 2.54205C8.29587 2.53591 8.37773 2.53488 8.66526 2.53488H15.3348C15.6214 2.53488 15.7032 2.53591 15.7615 2.54205L15.7605 2.54307ZM3.00871 8.45135C3.31875 8.11674 3.78433 7.8947 4.68992 7.77395C5.61187 7.65116 6.84694 7.65014 8.59466 7.65014H15.4055C17.1532 7.65014 18.3882 7.65219 19.3102 7.77395C20.2158 7.8947 20.6814 8.11674 20.9914 8.45135C21.2943 8.77879 21.459 9.22391 21.4652 10.0671C21.4713 10.9368 21.3117 12.0829 21.0804 13.7262L20.6476 16.796C20.4655 18.0863 20.3386 18.9786 20.1513 19.6478C19.9702 20.2925 19.7584 20.6353 19.4627 20.8798C19.1628 21.1295 18.7597 21.2891 18.0424 21.3751C17.3067 21.4631 16.3448 21.4641 14.9726 21.4641H9.0275C7.65429 21.4641 6.69345 21.4631 5.95773 21.3751C5.24145 21.2881 4.83726 21.1295 4.53745 20.8808C4.24173 20.6353 4.02992 20.2914 3.8488 19.6478C3.66154 18.9786 3.53466 18.0863 3.35252 16.796L2.91968 13.7262C2.68843 12.0839 2.5288 10.9368 2.53494 10.0671C2.54108 9.22391 2.70582 8.77777 3.00871 8.45135Z"
    fill="#262E33" />
  <path d="M9.45446 11.5H14.5455L16 14.0333L12 18.7381L7.99998 14.0333L9.45446 11.5Z" stroke="#262E33"
    stroke-width="1.35714" stroke-linecap="round" stroke-linejoin="round" />
</svg>