<svg width="32" height="32" viewBox="0 0 32 32" fill="none" xmlns="http://www.w3.org/2000/svg">
  <path
    d="M11.4788 6C9.38022 6 7.36764 6.83364 5.88375 8.31752C4.39987 9.80141 3.56623 11.814 3.56623 13.9125C3.56623 16.011 4.39987 18.0236 5.88375 19.5075C7.36764 20.9914 9.38022 21.825 11.4788 21.825H12.6882C12.581 21.0753 12.581 20.3141 12.6882 19.5643H11.4788C9.9798 19.5643 8.54224 18.9689 7.48232 17.9089C6.42241 16.849 5.82695 15.4115 5.82695 13.9125C5.82695 12.4136 6.42241 10.976 7.48232 9.91609C8.54224 8.85618 9.9798 8.26072 11.4788 8.26072H20.5216C21.3598 8.26055 22.1875 8.44681 22.9449 8.80601C23.7022 9.16521 24.3701 9.68836 24.9003 10.3376C25.4305 10.9868 25.8096 11.7458 26.0103 12.5596C26.2109 13.3734 26.228 14.2216 26.0604 15.0429C26.7264 15.6959 27.272 16.4612 27.6723 17.3036C28.2444 16.0974 28.5021 14.7661 28.4213 13.4336C28.3405 12.101 27.9238 10.8106 27.2101 9.68241C26.4964 8.55421 25.5089 7.62494 24.3394 6.98108C23.17 6.33722 21.8566 5.99972 20.5216 6H11.4788ZM20.5216 17.3036C19.6223 17.3036 18.7597 17.6609 18.1238 18.2968C17.4878 18.9328 17.1305 19.7953 17.1305 20.6947C17.1305 21.594 17.4878 22.4566 18.1238 23.0925C18.7597 23.7285 19.6223 24.0858 20.5216 24.0858C21.421 24.0858 22.2835 23.7285 22.9195 23.0925C23.5554 22.4566 23.9127 21.594 23.9127 20.6947C23.9127 19.7953 23.5554 18.9328 22.9195 18.2968C22.2835 17.6609 21.421 17.3036 20.5216 17.3036ZM14.8698 20.6947C14.87 19.8135 15.0763 18.9445 15.4722 18.1572C15.868 17.3699 16.4425 16.6861 17.1497 16.1603C17.8569 15.6346 18.6772 15.2815 19.5452 15.1292C20.4131 14.977 21.3047 15.0298 22.1486 15.2835C22.9925 15.5371 23.7654 15.9846 24.4056 16.5902C25.0457 17.1958 25.5354 17.9427 25.8356 18.7712C26.1357 19.5997 26.2379 20.487 26.134 21.362C26.0302 22.2371 25.7232 23.0758 25.2375 23.8111L28.103 26.6777L26.5046 28.276L23.638 25.4105C22.7861 25.9736 21.7976 26.2953 20.7775 26.3416C19.7574 26.3878 18.7438 26.1568 17.8445 25.6731C16.9452 25.1894 16.1937 24.4711 15.6699 23.5945C15.1462 22.7179 14.8697 21.7158 14.8698 20.6947Z"
    fill="#262E33" />
</svg>