<svg xmlns="http://www.w3.org/2000/svg" viewBox="0 0 872 872">
  <rect width="872" height="872" fill="#262e33" rx="123.36" ry="123.36"/>
  <path fill="#fff" d="M695.48 442.23V741.2c0 3.49-2.86 6.23-6.23 6.23h-91.31c-3.48 0-6.23-2.74-6.23-6.23V591.71c-30.27 22.68-65.52 38.99-103.89 46.72V741.2c0 3.49-2.74 6.23-6.23 6.23h-91.31c-3.49 0-6.23-2.74-6.23-6.23V338.46c0-3.49 2.74-6.23 6.23-6.23h91.31c3.49 0 6.23 2.74 6.23 6.23v192.46c42.98-15.07 77.24-48.58 93.56-90.93.87-2.37 3.23-3.99 5.72-3.99h102.15c3.37 0 6.23 2.86 6.23 6.23Z"/>
  <path fill="#fff" d="M682.53 332.23H587.1c-2.49 0-4.85-1.62-5.72-3.98-22.55-58.43-79.11-99.79-145.38-99.79-86.08 0-155.71 69.64-155.71 155.72V741.2c0 3.49-2.87 6.23-6.23 6.23h-91.44c-3.36 0-6.23-2.74-6.23-6.23V386.42c0-143.63 115.73-261.72 259.36-261.85 122.95 0 225.97 85.33 252.88 200.06.87 3.87-2.12 7.6-6.1 7.6Z"/>
</svg>