<svg xmlns="http://www.w3.org/2000/svg" viewBox="0 0 872 872">
  <path fill="currentColor" d="M747.43 0H124.57C55.68 0 0 55.81 0 124.57v622.86C0 816.19 55.68 872 124.57 872h622.86C816.19 872 872 816.19 872 747.43V124.57C872 55.81 816.19 0 747.43 0ZM280.29 384.18V741.2c0 3.49-2.86 6.23-6.23 6.23h-91.43c-3.36 0-6.23-2.74-6.23-6.23V386.42c0-143.63 115.73-261.73 259.36-261.85 122.95 0 225.97 85.33 252.88 200.06.87 3.86-2.12 7.6-6.1 7.6h-95.42c-2.49 0-4.86-1.62-5.73-3.99-22.55-58.42-79.1-99.78-145.38-99.78-86.08 0-155.71 69.63-155.71 155.71Zm415.2 357.02c0 3.49-2.86 6.23-6.23 6.23h-91.31c-3.49 0-6.23-2.74-6.23-6.23V591.71c-30.27 22.67-65.52 38.99-103.89 46.72V741.2c0 3.49-2.74 6.23-6.23 6.23h-91.31c-3.49 0-6.23-2.74-6.23-6.23V338.46c0-3.49 2.74-6.23 6.23-6.23h91.31c3.49 0 6.23 2.74 6.23 6.23v192.46c42.98-15.07 77.23-48.58 93.55-90.94.87-2.37 3.24-3.99 5.73-3.99h102.15c3.36 0 6.23 2.86 6.23 6.23v298.97Z"/>
</svg>