<svg width="24" height="24" viewBox="0 0 24 24" fill="none" xmlns="http://www.w3.org/2000/svg">
<path d="M6 21C5.71667 21 5.479 20.904 5.287 20.712C5.095 20.52 4.99933 20.2827 5 20V19H3C2.45 19 1.979 18.804 1.587 18.412C1.195 18.02 0.999333 17.5493 1 17V6C1 5.45 1.196 4.979 1.588 4.587C1.98 4.195 2.45067 3.99934 3 4H21C21.55 4 22.021 4.196 22.413 4.588C22.805 4.98 23.0007 5.45067 23 6V17C23 17.55 22.804 18.021 22.412 18.413C22.02 18.805 21.5493 19.0007 21 19H19V20C19 20.2833 18.904 20.521 18.712 20.713C18.52 20.905 18.2827 21.0007 18 21H6ZM3 17H21V6H3V17ZM6.025 15H18C18.2 15 18.35 14.9083 18.45 14.725C18.55 14.5417 18.5333 14.3667 18.4 14.2L14.9 9.525C14.8 9.39167 14.6667 9.325 14.5 9.325C14.3333 9.325 14.2 9.39167 14.1 9.525L11 13.5L8.9 10.975C8.8 10.8417 8.67067 10.779 8.512 10.787C8.35333 10.795 8.22467 10.866 8.126 11L5.626 14.2C5.49267 14.3667 5.47167 14.5417 5.563 14.725C5.65433 14.9083 5.80767 15 6.025 15Z" fill="#262E33"/>
</svg>
